<?xml version="1.0" standalone="no"?>
<!DOCTYPE svg PUBLIC "-//W3C//DTD SVG 20010904//EN"
 "http://www.w3.org/TR/2001/REC-SVG-20010904/DTD/svg10.dtd">
<svg version="1.0" xmlns="http://www.w3.org/2000/svg"
 width="1063.000000pt" height="1063.000000pt" viewBox="0 0 1063.000000 1063.000000"
 preserveAspectRatio="xMidYMid meet">
<metadata>
Created by potrace 1.14, written by Peter Selinger 2001-2017
</metadata>
<g transform="translate(0.000000,1063.000000) scale(0.100000,-0.100000)"
fill="#000000" stroke="none">
<path d="M4988 8345 c-2 -2 -59 -6 -128 -10 -202 -11 -278 -17 -360 -30 -14
-3 -47 -7 -75 -9 -27 -3 -61 -8 -75 -11 -14 -3 -43 -7 -65 -10 -22 -2 -51 -7
-65 -10 -54 -11 -77 -14 -114 -20 -42 -6 -194 -37 -321 -65 -90 -20 -239 -59
-365 -97 -47 -14 -94 -27 -105 -30 -11 -2 -29 -8 -40 -13 -11 -4 -63 -23 -115
-41 -265 -90 -691 -280 -841 -374 -21 -14 -41 -25 -43 -25 -33 0 -567 -363
-611 -415 -5 -6 -17 -16 -26 -21 -9 -5 -43 -32 -75 -61 -32 -28 -70 -61 -84
-73 -147 -127 -455 -465 -550 -605 -8 -13 -42 -62 -76 -111 -232 -338 -402
-698 -527 -1119 -13 -46 -29 -107 -28 -112 0 -2 -5 -17 -10 -35 -5 -18 -12
-46 -15 -63 -3 -16 -9 -48 -15 -70 -5 -22 -11 -53 -14 -70 -9 -61 -15 -111
-21 -160 -3 -27 -9 -81 -14 -120 -12 -105 -4 -435 14 -555 13 -89 34 -199 52
-272 2 -10 6 -28 9 -40 5 -26 43 -145 55 -173 4 -11 25 -63 46 -115 148 -371
419 -726 761 -999 143 -114 177 -135 207 -127 19 5 33 31 81 153 58 149 75
190 101 251 20 48 17 70 -13 101 -16 15 -50 54 -78 87 -27 32 -52 61 -55 64
-3 3 -31 43 -61 90 -114 176 -192 378 -230 600 -14 85 -18 397 -6 480 5 30 10
71 13 90 2 19 6 47 9 62 4 15 6 29 5 30 -1 2 3 16 9 31 6 15 13 42 16 59 6 33
54 182 76 233 6 17 13 36 15 43 6 30 120 243 172 321 118 177 310 394 437 493
16 13 46 38 65 56 19 17 37 32 41 32 4 0 14 6 21 13 27 27 156 116 262 182
256 157 571 299 856 385 58 18 112 35 120 38 33 12 237 62 272 67 15 2 44 8
65 14 21 5 54 12 73 15 19 3 46 8 60 10 39 7 170 25 230 31 245 25 359 33 560
40 142 5 252 12 291 21 13 2 40 7 59 10 160 24 320 97 413 186 99 96 143 176
221 403 19 55 46 132 61 170 14 39 25 70 25 70 -1 0 1 7 4 15 3 8 56 159 117
335 61 176 124 358 141 405 68 197 108 321 108 339 0 10 -8 22 -17 27 -16 6
-898 15 -905 9z"/>
<path d="M7963 8328 c-17 -8 -73 -109 -73 -132 0 -7 -85 -247 -99 -281 -5 -11
-16 -42 -26 -70 -9 -27 -20 -59 -25 -70 -5 -11 -61 -166 -125 -345 -224 -625
-236 -651 -380 -795 -123 -124 -230 -178 -440 -221 -66 -13 -162 -17 -532 -19
-422 -3 -455 -5 -496 -23 -24 -11 -54 -30 -66 -43 -26 -27 -84 -141 -95 -185
-4 -16 -14 -42 -21 -59 -8 -16 -18 -46 -24 -65 -7 -28 -115 -332 -138 -390 -3
-8 -7 -19 -9 -25 -2 -5 -23 -66 -48 -135 -24 -69 -71 -201 -104 -295 -33 -93
-84 -235 -112 -315 -28 -80 -58 -163 -65 -185 -7 -22 -39 -112 -70 -200 -31
-88 -65 -185 -75 -215 -10 -30 -43 -125 -73 -210 -70 -197 -184 -526 -244
-698 -33 -97 -42 -137 -34 -145 11 -11 1515 -18 1576 -7 29 6 61 46 69 87 2
10 45 140 96 288 50 149 93 275 94 280 2 6 6 17 9 25 3 8 13 38 22 65 8 28 19
59 24 70 5 11 39 108 75 215 36 107 110 328 166 490 56 162 141 413 190 557
49 144 93 270 98 280 6 10 10 20 9 23 -1 8 21 73 65 200 82 233 122 279 253
296 33 4 562 8 1176 8 1072 1 1118 2 1137 20 12 10 27 37 35 60 160 451 356
998 366 1021 5 11 19 47 30 80 18 54 69 197 107 300 8 22 16 45 18 50 2 6 6
17 9 25 3 8 15 42 27 75 11 33 23 67 27 75 3 8 7 22 9 30 2 8 7 23 13 35 6 11
24 61 42 110 17 50 50 145 74 212 39 110 41 124 28 142 -14 21 -14 21 -1231
20 -830 0 -1224 -4 -1239 -11z"/>
<path d="M3729 5256 c-2 -2 -26 -7 -53 -10 -194 -26 -417 -169 -563 -361 -42
-56 -46 -61 -95 -160 -41 -81 -51 -106 -113 -280 -26 -71 -53 -144 -61 -162
-8 -17 -14 -35 -14 -39 0 -5 -18 -56 -39 -114 -70 -186 -187 -509 -257 -709
-67 -191 -68 -194 -48 -210 18 -14 100 -16 847 -15 806 0 827 1 845 20 9 10
37 78 60 149 24 72 57 166 72 210 16 44 45 127 65 185 20 58 50 143 66 190 17
47 41 114 54 150 13 36 62 178 110 315 48 138 93 264 100 280 7 17 18 46 23
65 6 19 40 120 76 223 36 104 66 201 66 216 0 63 19 61 -587 61 -302 0 -552
-2 -554 -4z"/>
</g>
</svg>
